{
	"asset":{
		"generator":"Khronos glTF Blender I/O v4.0.44",
		"version":"2.0"
	},
	"scene":0,
	"scenes":[
		{
			"name":"Scene",
			"nodes":[
				19
			]
		}
	],
	"nodes":[
		{
			"mesh":0,
			"name":"hand",
			"rotation":[
				0,
				-0.7071066498756409,
				0,
				0.70710688829422
			],
			"scale":[
				-1,
				-1,
				-1
			],
			"translation":[
				0.07091447710990906,
				1.6109799146652222,
				-0.6299410462379456
			]
		},
		{
			"name":"Bone.004",
			"rotation":[
				0.06505923718214035,
				-0.0025641778483986855,
				0.026731571182608604,
				0.9975200295448303
			],
			"scale":[
				0.9999999403953552,
				1,
				0.9999999403953552
			],
			"translation":[
				9.301584213972092e-08,
				0.02016036957502365,
				-1.862645149230957e-09
			]
		},
		{
			"children":[
				1
			],
			"name":"Bone.003",
			"rotation":[
				0.0930539220571518,
				-0.002310875803232193,
				0.008219623006880283,
				0.9956244230270386
			],
			"translation":[
				-1.4546822058036923e-07,
				0.024879440665245056,
				-3.725290298461914e-09
			]
		},
		{
			"children":[
				2
			],
			"name":"Bone.002",
			"rotation":[
				-0.2100583165884018,
				0.002295216778293252,
				0.0018260183278471231,
				0.977684497833252
			],
			"translation":[
				0.0053666383028030396,
				0.09158898890018463,
				-0.03714871406555176
			]
		},
		{
			"name":"Bone.007",
			"rotation":[
				0.015082861296832561,
				-0.0026639760471880436,
				0.04193314537405968,
				0.9990030527114868
			],
			"scale":[
				0.9999999403953552,
				0.9999999403953552,
				0.9999998807907104
			],
			"translation":[
				2.1126470528542995e-07,
				0.026041947305202484,
				5.122274160385132e-09
			]
		},
		{
			"children":[
				4
			],
			"name":"Bone.006",
			"rotation":[
				0.06235947832465172,
				0.0018647857941687107,
				-0.006415968295186758,
				0.9980313777923584
			],
			"scale":[
				0.9999999403953552,
				1,
				0.9999999403953552
			],
			"translation":[
				-2.9191141948103905e-08,
				0.028891801834106445,
				-8.381903171539307e-09
			]
		},
		{
			"children":[
				5
			],
			"name":"Bone.005",
			"rotation":[
				-0.0882737934589386,
				-0.001004353049211204,
				0.005743933841586113,
				0.9960792064666748
			],
			"scale":[
				0.9999999403953552,
				1,
				1.0000001192092896
			],
			"translation":[
				0.004982046317309141,
				0.10397832095623016,
				-0.019960742443799973
			]
		},
		{
			"name":"Bone.010",
			"rotation":[
				0.05200094357132912,
				-0.0019132087472826242,
				0.11491096764802933,
				0.9920119643211365
			],
			"scale":[
				1,
				0.9999999403953552,
				1
			],
			"translation":[
				4.784669727087021e-08,
				0.026652099564671516,
				-2.3283064365386963e-09
			]
		},
		{
			"children":[
				7
			],
			"name":"Bone.009",
			"rotation":[
				-0.017536243423819542,
				-0.0008205333142541349,
				-0.010265138931572437,
				0.9997932314872742
			],
			"scale":[
				0.9999998807907104,
				0.9999999403953552,
				0.9999998807907104
			],
			"translation":[
				-5.372567102313042e-08,
				0.03843455761671066,
				2.3283064365386963e-09
			]
		},
		{
			"children":[
				8
			],
			"name":"Bone.008",
			"rotation":[
				-0.008463035337626934,
				-0.0016228231834247708,
				-0.011116021312773228,
				0.9999010562896729
			],
			"scale":[
				1.0000001192092896,
				1.0000001192092896,
				1.0000001192092896
			],
			"translation":[
				0.0041494667530059814,
				0.10634099692106247,
				0.00215745042078197
			]
		},
		{
			"name":"Bone.013",
			"rotation":[
				0.07988474518060684,
				0.0016274981899186969,
				0.07170194387435913,
				0.9942206144332886
			],
			"scale":[
				1,
				1,
				0.9999999403953552
			],
			"translation":[
				-3.41096892952919e-08,
				0.023884641006588936,
				1.3969838619232178e-09
			]
		},
		{
			"children":[
				10
			],
			"name":"Bone.012",
			"rotation":[
				-0.06003953143954277,
				-0.0001320730516454205,
				-0.011909369379281998,
				0.9981250166893005
			],
			"scale":[
				0.9999999403953552,
				0.9999998807907104,
				0.9999999403953552
			],
			"translation":[
				1.674779923632741e-07,
				0.03032798133790493,
				-4.190951585769653e-09
			]
		},
		{
			"children":[
				11
			],
			"name":"Bone.011",
			"rotation":[
				0.06267853081226349,
				-0.0006454875110648572,
				0.0017351050628349185,
				0.9980320930480957
			],
			"scale":[
				1,
				1.0000001192092896,
				1
			],
			"translation":[
				0.004486192017793655,
				0.10425995290279388,
				0.029001085087656975
			]
		},
		{
			"name":"Bone.016",
			"rotation":[
				-0.16874568164348602,
				0.002376107731834054,
				-0.002585940295830369,
				0.9856533408164978
			],
			"scale":[
				0.9999999403953552,
				0.9999998807907104,
				0.9999998807907104
			],
			"translation":[
				4.4121406972408295e-08,
				0.031653400510549545,
				6.51925802230835e-09
			]
		},
		{
			"children":[
				13
			],
			"name":"Bone.015",
			"rotation":[
				0.11484283953905106,
				-0.0017010730225592852,
				-0.010079083032906055,
				0.9933311343193054
			],
			"scale":[
				1,
				0.9999999403953552,
				1
			],
			"translation":[
				-2.8259819373488426e-08,
				0.03855932503938675,
				-2.0954757928848267e-09
			]
		},
		{
			"children":[
				14
			],
			"name":"Bone.014",
			"rotation":[
				0.27661409974098206,
				-0.005423547234386206,
				0.028300728648900986,
				0.960548996925354
			],
			"scale":[
				1,
				1,
				0.9999999403953552
			],
			"translation":[
				-0.0012007714249193668,
				0.03003237582743168,
				0.019532712176442146
			]
		},
		{
			"children":[
				3,
				6,
				9,
				12,
				15
			],
			"name":"Bone.001",
			"rotation":[
				-0.003251418936997652,
				2.1429633534353343e-07,
				-0.013686317019164562,
				0.9999010562896729
			],
			"scale":[
				1,
				1,
				0.9999998807907104
			],
			"translation":[
				-5.454057827591896e-08,
				0.06766941398382187,
				3.7834979593753815e-10
			]
		},
		{
			"children":[
				16
			],
			"name":"Bone",
			"rotation":[
				0.5023219585418701,
				-0.494571328163147,
				-0.4838775396347046,
				0.5185889005661011
			],
			"scale":[
				1,
				1,
				1.000000238418579
			],
			"translation":[
				0.2029472291469574,
				0.16530168056488037,
				-0.010825499892234802
			]
		},
		{
			"name":"Bone.017",
			"rotation":[
				0.670090913772583,
				0.0029305224306881428,
				-0.7420019507408142,
				0.02006961964070797
			],
			"scale":[
				0.9999999403953552,
				0.9999998211860657,
				0.9999999403953552
			],
			"translation":[
				0.2594924867153168,
				0.16603779792785645,
				0.20945705473423004
			]
		},
		{
			"children":[
				0,
				17,
				18
			],
			"name":"Armature",
			"translation":[
				-0.21948258578777313,
				-1.6109799146652222,
				-0.1270975023508072
			]
		}
	],
	"meshes":[
		{
			"name":"Cube.017",
			"primitives":[
				{
					"attributes":{
						"COLOR_0":0,
						"POSITION":1,
						"NORMAL":2,
						"TEXCOORD_0":3
					},
					"indices":4
				}
			]
		}
	],
	"skins":[
		{
			"inverseBindMatrices":5,
			"joints":[
				17,
				16,
				3,
				2,
				1,
				6,
				5,
				4,
				9,
				8,
				7,
				12,
				11,
				10,
				15,
				14,
				13,
				18
			],
			"name":"Armature"
		}
	],
	"accessors":[
		{
			"bufferView":0,
			"componentType":5123,
			"count":690,
			"normalized":true,
			"type":"VEC4"
		},
		{
			"bufferView":1,
			"componentType":5126,
			"count":690,
			"max":[
				-0.6243315935134888,
				1.4668551683425903,
				0.19272781908512115
			],
			"min":[
				-0.8803704977035522,
				1.421156644821167,
				0.05584964156150818
			],
			"type":"VEC3"
		},
		{
			"bufferView":2,
			"componentType":5126,
			"count":690,
			"type":"VEC3"
		},
		{
			"bufferView":3,
			"componentType":5126,
			"count":690,
			"type":"VEC2"
		},
		{
			"bufferView":4,
			"componentType":5123,
			"count":3108,
			"type":"SCALAR"
		},
		{
			"bufferView":5,
			"componentType":5126,
			"count":18,
			"type":"MAT4"
		}
	],
	"bufferViews":[
		{
			"buffer":0,
			"byteLength":5520,
			"byteOffset":0,
			"target":34962
		},
		{
			"buffer":0,
			"byteLength":8280,
			"byteOffset":5520,
			"target":34962
		},
		{
			"buffer":0,
			"byteLength":8280,
			"byteOffset":13800,
			"target":34962
		},
		{
			"buffer":0,
			"byteLength":5520,
			"byteOffset":22080,
			"target":34962
		},
		{
			"buffer":0,
			"byteLength":6216,
			"byteOffset":27600,
			"target":34963
		},
		{
			"buffer":0,
			"byteLength":1152,
			"byteOffset":33816
		}
	],
	"buffers":[
		{
			"byteLength":34968,
			"uri":"Rigged%20Hand%202.bin"
		}
	]
}
